<svg width="72" height="72" viewBox="0 0 72 72" fill="none" xmlns="http://www.w3.org/2000/svg">
<path d="M70.9484 32.094C69.5722 30.7216 67.3472 30.7216 65.9711 32.094L63.7529 34.3169L59.5972 24.5039L61.0207 23.1383C64.1553 20.1326 66.0319 16.0492 66.2787 11.7082L66.6405 6.09659C66.6574 5.83905 66.5594 5.58491 66.3768 5.40192C66.1942 5.21893 65.9406 5.12066 65.6836 5.1376L60.0841 5.46291C55.7458 5.70689 51.6611 7.58419 48.6518 10.7221L47.191 12.2503L37.7843 8.2551L40.0025 6.03216C41.3787 4.64617 41.3685 2.40293 39.9856 1.02718C38.6026 -0.348574 36.3642 -0.341808 34.9914 1.04412L30.7512 5.3002L26.2439 3.37541C25.1518 2.91456 23.8905 3.16193 23.0519 3.99892L19.5522 7.46888C18.9605 8.06528 18.6494 8.8887 18.7069 9.72912C18.761 10.5661 19.1735 11.3388 19.843 11.8436L35.8839 24.07L24.9727 35.4662L15.0553 34.3005C14.1694 34.1955 13.2834 34.5038 12.6545 35.1409L10.4465 37.3537C9.8345 37.9636 9.52342 38.8108 9.59781 39.6715C9.67219 40.5322 10.1253 41.315 10.8354 41.8097L19.3631 47.7737L17.0469 50.0136C15.735 51.325 15.7316 53.4565 17.0435 54.7712C18.3521 56.086 20.479 56.0894 21.791 54.7746L24.0733 52.4873L29.9873 60.9996V61.0029C30.4843 61.7179 31.2823 62.1687 32.1513 62.2297H32.3745C33.1522 62.2161 33.8927 61.8908 34.4303 61.3283L36.6417 59.1121C37.2572 58.5123 37.575 57.6685 37.5074 56.8078L36.3441 46.869L47.7496 35.8996L60.1756 52.2908C60.6794 52.9584 61.4504 53.3752 62.2855 53.4294H62.485H62.4817C63.2526 53.4294 63.9931 53.1244 64.5375 52.5789L68.0169 49.092H68.0203C68.8588 48.2516 69.1057 46.9876 68.6424 45.8931L66.7218 41.3761L70.9518 37.1302L70.9484 37.1268C71.6213 36.4626 72 35.5578 72 34.6124C72 33.6636 71.6212 32.7581 70.9484 32.094ZM36.2629 2.31824C36.9459 1.72184 37.9739 1.75911 38.6129 2.40295C39.252 3.0468 39.2858 4.07695 38.6873 4.75801L35.9822 7.46892L32.5738 6.02195L36.2629 2.31824ZM20.9353 10.451H20.932C20.6784 10.2578 20.5228 9.96638 20.4992 9.64785C20.4687 9.31237 20.5871 8.98368 20.8238 8.74306L24.3065 5.30016C24.6244 4.98502 25.1011 4.89353 25.5136 5.06635L45.8453 13.7142L37.145 22.7586L20.9353 10.451ZM20.5566 53.5374H20.5533C19.948 54.144 18.9674 54.144 18.3622 53.5374C18.068 53.2494 17.9023 52.8529 17.9023 52.4395C17.9023 52.0261 18.068 51.6297 18.3622 51.3416L26.217 43.4631C26.8223 42.8532 27.8062 42.8498 28.4115 43.4563C29.0202 44.0629 29.0236 45.049 28.4183 45.659L20.5566 53.5374ZM35.4072 57.946L33.1857 60.1249C32.9524 60.3655 32.6176 60.4807 32.2862 60.44C31.9583 60.4129 31.6607 60.2401 31.4747 59.9724L25.3714 51.1995L29.669 46.8688C30.981 45.5574 30.9844 43.4259 29.6758 42.1111C28.3639 40.7964 26.2403 40.793 24.9284 42.1077L20.6544 46.435L11.9003 40.3253H11.897C11.6298 40.1389 11.4574 39.8407 11.4303 39.512C11.3898 39.18 11.5047 38.8445 11.7448 38.6106L13.9528 36.3978V36.3945C14.1895 36.1572 14.5209 36.0386 14.8557 36.0793L23.8737 37.1366C22.9709 38.7258 21.5305 41.3216 21.3682 41.6536H21.3648C21.145 42.1009 21.3276 42.6431 21.7706 42.8667C22.2135 43.0904 22.7545 42.9108 22.981 42.4669C23.1332 42.1585 24.8847 39.041 26.0547 36.9535L49.9502 11.9959C52.6316 9.18328 56.2801 7.49237 60.155 7.27211L64.7536 7.00102L64.4831 11.6265C64.2633 15.5133 62.5761 19.1662 59.7696 21.8568L34.8561 45.7943C32.7732 46.9702 29.6522 48.7221 29.3546 48.8678V48.8644C28.9083 49.0881 28.7291 49.6302 28.9489 50.0775C29.101 50.3859 29.4155 50.5824 29.7604 50.5824C29.9024 50.579 30.041 50.5452 30.1661 50.4842C30.4806 50.3215 33.0775 48.8678 34.6734 47.98L35.7285 57.0175C35.7555 57.3462 35.6372 57.6681 35.4038 57.9019L35.4072 57.946ZM66.7488 47.773L63.2695 51.2598H63.2661C63.0328 51.5038 62.7014 51.6224 62.3666 51.5851C62.0488 51.5648 61.7546 51.4056 61.5618 51.1514L49.064 34.6318L58.2067 25.8381L66.9815 46.6205V46.6239C67.1269 47.0204 67.0362 47.4646 66.7488 47.773ZM69.6804 35.7912L65.9643 39.5153L64.5103 36.1165L67.2154 33.4056C67.5299 33.043 67.9762 32.8295 68.453 32.8126C68.9298 32.7957 69.393 32.9786 69.7312 33.3141C70.0693 33.653 70.2519 34.1138 70.2384 34.5917C70.2215 35.0695 70.0084 35.5201 69.65 35.8353L69.6804 35.7912ZM52.368 12.9285H52.3646C52.3646 12.4304 52.7704 12.0237 53.2674 12.0237L58.6776 12.1321C58.9177 12.1321 59.1476 12.227 59.3167 12.3965C59.4857 12.5659 59.5804 12.7963 59.5804 13.0369L59.6886 18.4587C59.6886 18.6993 59.5939 18.9297 59.4249 19.0992C59.2558 19.2686 59.0259 19.3635 58.7858 19.3635C58.2887 19.3635 57.8829 18.9569 57.8829 18.4587L57.7917 13.8942L53.2844 13.796C52.8008 13.8061 52.3951 13.43 52.3646 12.9454L52.368 12.9285ZM1.26598 56.964C1.02929 56.9606 0.802738 56.8624 0.637058 56.6929C0.285399 56.3405 0.285399 55.7712 0.637058 55.4188L9.94942 46.0733C10.3045 45.7209 10.8759 45.7209 11.231 46.0733C11.586 46.4291 11.586 47.0018 11.231 47.3576L1.90822 56.6935C1.73916 56.8664 1.50944 56.9606 1.26598 56.964ZM11.9954 54.3175L2.68301 63.6603C2.51394 63.8298 2.28401 63.9213 2.04394 63.9213C1.80386 63.9213 1.57393 63.8298 1.40148 63.6603C1.23242 63.4909 1.13436 63.2571 1.13436 63.0165C1.13436 62.7759 1.23242 62.5455 1.40148 62.3761L10.7338 53.0401C10.8994 52.8504 11.1328 52.7352 11.3864 52.725C11.6366 52.7148 11.88 52.8131 12.0559 52.9893C12.2351 53.1689 12.3298 53.4129 12.3196 53.6636C12.3095 53.9144 12.1979 54.1516 12.0051 54.3143L11.9954 54.3175ZM0.27225 70.5014L3.88016 66.8416L3.88355 66.8382C4.2352 66.4858 4.81002 66.4858 5.16172 66.8382C5.51677 67.194 5.51677 67.7667 5.16172 68.1225L1.50984 71.7382C1.15818 72.0873 0.590113 72.0873 0.23841 71.7382C-0.0828134 71.3858 -0.0794377 70.8437 0.248554 70.498L0.27225 70.5014ZM7.00783 65.0253L7.01121 65.022C6.66294 64.6695 6.66294 64.1002 7.01121 63.7478L9.5912 61.1555C9.94286 60.7997 10.5177 60.7997 10.8694 61.1555C11.2244 61.5113 11.2244 62.0839 10.8694 62.4398L8.28264 65.0253V65.0219C8.11357 65.1948 7.88364 65.293 7.64357 65.293C7.39673 65.2964 7.15665 65.2015 6.9842 65.0219L7.00783 65.0253ZM15.3226 71.3519L15.3259 71.3486C14.9743 70.9961 14.9743 70.4268 15.3259 70.0744L24.6115 60.7662C24.9665 60.4172 25.538 60.4172 25.8897 60.773C26.2379 61.1254 26.2379 61.6981 25.8829 62.0506L16.5705 71.3865C16.2189 71.7355 15.6508 71.7355 15.2991 71.3865L15.3226 71.3519ZM8.37058 70.5827L8.37396 70.5793C8.20151 70.4099 8.10684 70.1795 8.10684 69.9389C8.10684 69.6983 8.20152 69.4679 8.37396 69.2984L17.669 59.9998C17.8313 59.8067 18.068 59.6948 18.3182 59.6847C18.5684 59.6745 18.8153 59.7694 18.9911 59.949C19.1703 60.1252 19.265 60.3692 19.2549 60.6199C19.2447 60.8741 19.1297 61.1079 18.9404 61.2739L9.62457 70.6168C9.4555 70.7862 9.22557 70.8811 8.9855 70.8777C8.74543 70.8811 8.51549 70.7862 8.34643 70.6168L8.37058 70.5827Z" fill="black"/>
</svg>
