<svg width="43" height="68" viewBox="0 0 43 68" fill="none" xmlns="http://www.w3.org/2000/svg">
<path d="M37.7773 12.2065V12.7065H38.2773H38.5987C40.7519 12.7065 42.5 14.4489 42.5 16.5838V63.6227C42.5 65.7575 40.7519 67.5 38.5987 67.5H4.40134C2.24811 67.5 0.5 65.7575 0.5 63.6227V16.583V12.0846C0.5 10.1116 2.05735 8.12775 3.92853 7.68944L34.2356 0.591C34.2356 0.590988 34.2357 0.590976 34.2357 0.590964C35.1743 0.371483 36.0417 0.554805 36.7017 1.07516L36.7021 1.07542C37.3718 1.60256 37.7773 2.46511 37.7773 3.46761V12.2065ZM4.04154 8.15535L4.04142 8.15537C3.18486 8.35621 2.42496 8.91302 1.88322 9.61178C1.34106 10.3111 0.986398 11.1922 0.986774 12.0854C0.986774 12.0854 0.986774 12.0855 0.986774 12.0856L0.986774 13.3083V14.4162L1.81755 13.6833C2.50654 13.0754 3.41098 12.7065 4.40134 12.7065H36.7905H37.2905V12.2065V3.46761C37.2905 2.65708 36.9962 1.91953 36.398 1.44865C35.8301 1.00166 35.0898 0.882642 34.3487 1.05687C34.3486 1.05691 34.3484 1.05694 34.3482 1.05698L4.04154 8.15535ZM31.2979 27.7375H32.1016L31.7464 27.0166C30.2895 24.0589 27.5774 21.8206 24.3024 20.9945L23.0712 20.6839L23.7601 21.7506C24.6035 23.0565 25.2302 25.0457 25.5944 27.3167L25.6619 27.7375H26.0881H31.2979ZM31.8938 35.7656H32.2589L32.37 35.4179C32.716 34.3362 32.9035 33.1845 32.9035 31.9909C32.9035 30.7973 32.716 29.6456 32.37 28.5639L32.2589 28.2162H31.8938H26.2832H25.727L25.7861 28.7692C25.8991 29.8284 25.9564 30.9155 25.9564 31.9909C25.9564 33.0662 25.8991 34.1534 25.7861 35.2125L25.727 35.7656H26.2832H31.8938ZM18.4062 36.2443H17.8145L17.9132 36.8277C18.2457 38.7915 18.766 40.3698 19.3574 41.4718C19.6525 42.0216 19.9753 42.4717 20.3173 42.7909C20.6542 43.1054 21.0565 43.3349 21.5 43.3349C21.9435 43.3349 22.3458 43.1054 22.6827 42.7909C23.0247 42.4717 23.3475 42.0217 23.6427 41.4718C24.2342 40.3699 24.7547 38.7916 25.0875 36.8278L25.1864 36.2443H24.5945H18.4062ZM17.705 35.3197L17.7535 35.7656H18.202H24.7987H25.2473L25.2958 35.3197C25.4074 34.2936 25.4712 33.1828 25.4712 31.9909C25.4712 30.799 25.4074 29.6882 25.2958 28.6621L25.2473 28.2162H24.7987H18.202H17.7535L17.705 28.6621C17.5933 29.6882 17.5296 30.799 17.5296 31.9909C17.5296 33.1828 17.5933 34.2936 17.705 35.3197ZM11.1062 28.2162H10.7411L10.63 28.5639C10.284 29.6456 10.0965 30.7973 10.0965 31.9909C10.0965 33.1846 10.284 34.3355 10.6299 35.4178L10.7411 35.7656H11.1062H16.7168H17.273L17.2139 35.2125C17.1009 34.1534 17.0436 33.0662 17.0436 31.9909C17.0436 30.9155 17.1009 29.8284 17.2139 28.7692L17.273 28.2162H16.7168H11.1062ZM24.5938 27.7375H25.1855L25.0868 27.1541C24.7543 25.1903 24.234 23.6119 23.6426 22.51C23.3475 21.9601 23.0247 21.5101 22.6827 21.1909C22.3458 20.8764 21.9435 20.6469 21.5 20.6469C21.0565 20.6469 20.6542 20.8764 20.3173 21.1909C19.9753 21.5101 19.6525 21.9601 19.3573 22.51C18.7658 23.6119 18.2453 25.1902 17.9125 27.154L17.8136 27.7375H18.4055H24.5938ZM19.24 21.7505L19.9283 20.6841L18.6976 20.9945C15.4226 21.8206 12.7105 24.0589 11.2536 27.0166L10.8985 27.7375H11.7021H16.9119H17.338L17.4056 27.3167C17.7698 25.0465 18.3965 23.0572 19.24 21.7505ZM11.7021 36.2435H10.8985L11.2535 36.9644C12.7105 39.923 15.4227 42.1604 18.6975 42.9873L19.9285 43.2981L19.24 42.2313C18.3965 40.9246 17.7698 38.9353 17.4056 36.6643L17.3381 36.2435H16.9119H11.7021ZM23.76 42.2313L23.0715 43.2981L24.3025 42.9873C27.5773 42.1604 30.2895 39.923 31.7465 36.9644L32.1015 36.2435H31.2979H26.0881H25.6619L25.5944 36.6643C25.2302 38.9353 24.6035 40.9246 23.76 42.2313ZM38.5994 67.0221C40.48 67.0221 42.014 65.5004 42.014 63.6234L42.0132 16.5838C42.0132 14.7068 40.4792 13.1851 38.5987 13.1851H4.40134C2.52076 13.1851 0.986774 14.7068 0.986774 16.5838V63.6234C0.986774 65.5004 2.52076 67.0221 4.40134 67.0221H38.5994ZM9.61047 31.9901C9.61047 25.4742 14.9417 20.1682 21.5 20.1682C28.0583 20.1682 33.3895 25.4749 33.3895 31.9909C33.3895 38.5068 28.0583 43.8128 21.5 43.8128C14.9417 43.8128 9.61047 38.5061 9.61047 31.9901ZM15.7155 50.791C15.5784 50.791 15.4721 50.6813 15.4721 50.5516C15.4721 50.422 15.5784 50.3123 15.7155 50.3123H27.2845C27.4216 50.3123 27.5279 50.422 27.5279 50.5516C27.5279 50.6813 27.4216 50.791 27.2845 50.791H15.7155ZM31.9867 55.6269C31.9867 55.7566 31.8804 55.8663 31.7433 55.8663H11.2567C11.1196 55.8663 11.0133 55.7566 11.0133 55.6269C11.0133 55.4972 11.1196 55.3876 11.2567 55.3876H31.7433C31.8804 55.3876 31.9867 55.4972 31.9867 55.6269ZM31.9867 59.9629C31.9867 60.0926 31.8804 60.2022 31.7433 60.2022H11.2567C11.1196 60.2022 11.0133 60.0926 11.0133 59.9629C11.0133 59.8332 11.1196 59.7235 11.2567 59.7235H31.7433C31.8804 59.7235 31.9867 59.8332 31.9867 59.9629Z" stroke="black"/>
</svg>
