<svg width="90" height="59" viewBox="0 0 90 59" fill="none" xmlns="http://www.w3.org/2000/svg">
<path d="M8.94522 21.2535H12.3417C12.9371 22.285 13.7464 23.1907 14.7319 23.9078L10.8741 28.8179C10.3877 29.4092 10.8447 30.3652 11.6163 30.3443H26.1411C27.3865 30.3065 27.3907 28.4992 26.1411 28.4574H13.5571L16.8571 24.2558C16.9326 24.1635 16.9829 24.0503 17.0206 23.9371C17.1422 23.522 16.9451 23.0523 16.5677 22.8469C15.8172 22.436 15.1672 21.8951 14.6347 21.2577H21.5534C22.7988 21.2199 22.803 19.4084 21.5534 19.3708H13.5193C13.2257 18.6118 13.0664 17.7984 13.0664 16.9597C13.4312 8.07443 26.1034 8.07024 26.4673 16.9597C26.5051 18.2093 28.3165 18.2051 28.3542 16.9597C28.3542 12.2256 24.5008 8.3721 19.7666 8.3721C14.1394 8.28404 9.86236 14.0077 11.5271 19.3706H8.93565C8.4157 19.3706 7.99219 19.7942 7.99219 20.3141C7.99219 20.8341 8.4157 21.2576 8.93565 21.2576L8.94522 21.2535Z" fill="black"/>
<path d="M19.3427 38.7107C21.5063 38.7107 23.6197 38.3585 25.6408 37.6624C25.6073 38.1362 25.5863 38.6184 25.5863 39.1049C25.5863 49.7765 34.2703 58.4602 44.9416 58.4602C55.613 58.4602 64.297 49.7763 64.297 39.1049C64.297 38.6185 64.2802 38.1405 64.2425 37.6624C66.2636 38.3585 68.3728 38.7107 70.5406 38.7107C81.2122 38.7107 89.896 30.0267 89.896 19.3553C89.896 8.68376 81.212 0 70.5406 0C59.869 0 51.1853 8.68398 51.1853 19.3553C51.1853 19.8376 51.202 20.324 51.2398 20.802C49.2649 20.1227 47.1473 19.7495 44.9458 19.7495C42.7444 19.7495 40.6269 20.1185 38.6519 20.802C38.6854 20.324 38.7064 19.8376 38.7064 19.3553C38.7064 8.68376 30.0224 0 19.3511 0C8.67947 0 0 8.68398 0 19.3553C0 30.0269 8.68398 38.7107 19.3511 38.7107H19.3427ZM52.859 19.3553C52.859 9.61047 60.7882 1.67673 70.5376 1.67673C80.2824 1.67673 88.2162 9.60596 88.2162 19.3553C88.2162 29.1047 80.2869 37.034 70.5376 37.034C68.2774 37.034 66.0845 36.6105 64.0089 35.7844C62.9061 29.4275 58.6878 24.1235 52.9931 21.5064C52.9051 20.802 52.859 20.0808 52.859 19.3553ZM62.6164 39.1046C62.6164 48.8537 54.6871 56.7833 44.9378 56.7833C35.1884 56.7833 27.2591 48.854 27.2591 39.1046C27.2591 29.3598 35.1884 21.426 44.9378 21.426C54.6826 21.426 62.6164 29.3553 62.6164 39.1046ZM19.3435 1.67673C29.0926 1.67673 37.0222 9.60596 37.0222 19.3553C37.0222 20.0808 36.976 20.7978 36.888 21.5064C31.1895 24.123 26.9753 29.4273 25.8722 35.7844C23.7966 36.6104 21.6036 37.034 19.3435 37.034C9.59867 37.034 1.66921 29.1047 1.66921 19.3553C1.66921 9.61047 9.59845 1.67673 19.3435 1.67673Z" fill="black"/>
<path d="M61.7695 21.884C61.7695 22.4039 62.193 22.8274 62.713 22.8274H64.9606C66.4198 27.1883 70.5375 30.3416 75.3805 30.3416C75.9005 30.3416 76.324 29.9181 76.324 29.3981C76.324 28.8781 75.9005 28.4546 75.3805 28.4546C71.5942 28.4546 68.3402 26.1274 66.9691 22.8274H73.045C74.2905 22.7897 74.2946 20.9782 73.045 20.9405H66.4198C66.2311 19.9132 66.2311 18.7936 66.4198 17.7663H73.045C73.565 17.7663 73.9885 17.347 73.9885 16.8229C73.9885 16.3029 73.565 15.8794 73.045 15.8794H66.9691C68.336 12.5794 71.59 10.2522 75.3805 10.2522C75.9005 10.2522 76.324 9.82866 76.324 9.3087C76.324 8.78874 75.9005 8.36523 75.3805 8.36523C70.5375 8.36523 66.4155 11.5185 64.9606 15.8794H62.713C62.193 15.8794 61.7695 16.3029 61.7695 16.8228C61.7695 17.347 62.193 17.7663 62.713 17.7663H64.5077C64.3526 18.7978 64.3526 19.909 64.5077 20.9405H62.713C62.193 20.9405 61.7695 21.364 61.7695 21.884Z" fill="black"/>
<path d="M44.9364 48.4644C42.6176 48.4644 40.7307 46.5775 40.7307 44.2586C40.6929 43.009 38.8814 43.0132 38.8438 44.2586C38.8438 47.2987 41.0829 49.8272 43.9972 50.28V51.0642C43.9972 51.5841 44.4207 52.0076 44.9406 52.0076C45.4606 52.0076 45.8841 51.5841 45.8841 51.0642V50.28C48.7983 49.823 51.0333 47.2988 51.0333 44.2586C51.0333 40.8999 48.2993 38.166 44.9406 38.166C42.6218 38.166 40.7349 36.2791 40.7349 33.956C40.9655 28.3749 48.9157 28.3749 49.1505 33.956C49.1505 34.476 49.574 34.8995 50.0939 34.8995C50.6139 34.8995 51.0374 34.476 51.0374 33.956C51.0374 30.916 48.8025 28.3917 45.8882 27.9346V27.1505C45.8882 26.6305 45.4647 26.207 44.9447 26.207C44.4248 26.207 44.0013 26.6305 44.0013 27.1505V27.9304C41.0871 28.3833 38.8479 30.9117 38.8479 33.9518C38.8479 37.3105 41.5818 40.0487 44.9405 40.0487C50.5216 40.2793 50.5216 48.2337 44.9405 48.4643L44.9364 48.4644Z" fill="black"/>
</svg>
