<svg width="59" height="69" viewBox="0 0 59 69" fill="none" xmlns="http://www.w3.org/2000/svg">
<path d="M58.169 33.1342C58.1217 32.8476 58.0584 32.563 58.0131 32.2765C57.7155 30.425 57.4226 28.5726 57.124 26.7211C57.0503 26.2621 56.9388 25.8318 56.3889 25.7149C56.3143 25.6986 56.2311 25.5223 56.2226 25.414C55.9864 22.2285 55.3799 19.1044 54.7355 15.986C54.4435 14.5716 53.9777 13.2452 52.9347 12.1921C52.0919 11.3401 51.0705 10.7929 49.9849 10.3598C46.7593 9.07369 43.5243 7.81063 40.2977 6.52744C40.1324 6.46131 39.967 6.31277 39.8725 6.15753C38.8701 4.5121 37.879 2.85996 36.8926 1.20398C36.6904 0.863779 36.4032 0.675949 36.0271 0.631866C34.3633 0.435411 32.7033 0.179541 31.0347 0.0683765C28.0623 -0.129037 25.105 0.112458 22.1751 0.645283C21.9021 0.695115 21.5497 0.832155 21.4155 1.04682C20.3875 2.69225 19.3945 4.36164 18.4157 6.03965C18.2589 6.30798 18.0945 6.48527 17.8082 6.59644C14.6137 7.84704 11.4193 9.0986 8.23337 10.3713C6.90496 10.9022 5.65591 11.5548 4.74699 12.7508C3.96468 13.78 3.65572 14.9788 3.3959 16.2055C2.75625 19.2223 2.21204 22.2544 1.96544 25.3344C1.9541 25.4782 1.85584 25.7082 1.75475 25.736C1.26722 25.8701 1.11416 26.2257 1.04613 26.6694C0.709776 28.839 0.364917 31.0086 0.0361195 33.1792C-0.101824 34.0896 0.143829 34.4787 0.972436 34.8496C4.01853 36.2104 7.11565 37.4313 10.3063 38.3963C10.7995 38.5458 10.9204 38.7844 10.9186 39.2837C10.8987 45.0049 10.9006 50.7251 10.9034 56.4462C10.9034 58.1348 10.9289 59.8224 10.9327 61.5109C10.9337 62.084 11.2086 62.4491 11.6735 62.7433C14.0261 64.2297 16.4731 65.5291 19.0128 66.6533C19.3312 66.7941 19.643 66.9484 19.9576 67.097L23.7823 68.5124C24.4181 68.7481 25.0871 68.8804 25.7635 68.9072C27.7288 68.9839 29.6893 69.0347 31.6592 68.9714C32.2658 68.9523 32.8658 68.843 33.443 68.6542L38.2484 67.0759C38.3797 67.0184 38.5101 66.958 38.6414 66.9024C41.3861 65.7409 44.0052 64.337 46.5203 62.727C47.0229 62.405 47.2667 61.9882 47.2535 61.3969C47.2497 61.2225 47.2563 61.0471 47.2563 60.8727C47.2572 53.6086 47.261 46.3446 47.2525 39.0815C47.2525 38.7298 47.3404 38.5698 47.6928 38.4653C48.4298 38.2478 49.1658 38.0245 49.8838 37.7475C52.3281 36.8045 54.7629 35.8347 57.1939 34.8544C57.8723 34.5803 58.288 33.8663 58.168 33.1361L58.169 33.1342ZM50.6331 12.6022C51.6469 13.2136 52.3961 14.0138 52.6985 15.1149C53.0972 16.5696 53.4458 18.0464 53.6971 19.5347C54.042 21.5836 54.2669 23.6526 54.5616 25.711C54.6193 26.1145 54.5068 26.2966 54.1185 26.4355C51.9568 27.207 49.8064 28.011 47.6512 28.8026C47.5464 28.8409 47.4358 28.862 47.2865 28.9022C47.399 23.2472 48.3674 17.8145 50.6331 12.6022ZM35.1881 2.21309C34.95 2.88008 34.7374 3.52119 34.4805 4.14314C34.4464 4.2246 34.1772 4.26006 34.0326 4.23227C32.0353 3.84894 30.0171 3.74257 27.9943 3.84606C26.7377 3.91027 25.4848 4.08564 24.2367 4.25239C23.8588 4.30318 23.6632 4.25239 23.5555 3.85277C23.41 3.30941 23.205 2.78233 23.0103 2.20255C27.0995 1.52598 31.1046 1.5001 35.1891 2.21213L35.1881 2.21309ZM33.5904 5.87003C32.3537 7.51546 30.7352 8.52841 29.1186 9.5701C27.4907 8.51978 25.8363 7.51834 24.6014 5.87578C27.6173 5.34966 30.5566 5.33242 33.5914 5.87003H33.5904ZM3.62643 25.7724C3.92405 22.2304 4.48622 18.7354 5.38002 15.298C5.68425 14.1288 6.46656 13.1849 7.53893 12.6185C9.82728 17.7838 10.7617 23.1878 10.877 28.8505C10.1891 28.6147 9.57974 28.4164 8.97789 28.196C7.32162 27.5903 5.67008 26.9703 4.01192 26.3713C3.7058 26.2611 3.59903 26.1097 3.62738 25.7724H3.62643ZM2.38022 28.9712C2.44635 28.585 2.51155 28.1998 2.57768 27.8136C2.57957 27.8021 2.59469 27.7916 2.64004 27.7388C2.7761 27.7839 2.93388 27.8318 3.08883 27.8893C5.55386 28.7949 8.01607 29.7072 10.4849 30.6013C10.7901 30.7115 10.9157 30.8572 10.8959 31.1945C10.8666 31.7005 10.8883 32.2094 10.8883 32.8313C9.96617 32.5017 9.11489 32.2065 8.27116 31.8932C6.46939 31.2223 4.66951 30.5458 2.87152 29.8625C2.26967 29.6334 2.26967 29.6114 2.38022 28.9722V28.9712ZM10.9091 35.3124C10.8628 35.7705 10.8987 36.2362 10.8987 36.7614C10.602 36.6761 10.3809 36.6301 10.1712 36.5496C7.46807 35.5166 4.76494 34.4825 2.06843 33.4332C1.93426 33.3814 1.75569 33.1821 1.76419 33.0642C1.80388 32.5314 1.90403 32.0034 1.9919 31.4025C2.55217 31.621 3.07466 31.8347 3.60281 32.0302C5.86093 32.8668 8.1181 33.7044 10.3828 34.5237C10.7787 34.6675 10.9545 34.8649 10.9082 35.3115L10.9091 35.3124ZM26.7783 67.1219C25.6086 66.8142 24.488 66.5775 23.4043 66.2239C20.3781 65.2369 17.5436 63.807 14.7668 62.2536C14.7668 62.2536 12.7099 61.3959 12.7099 60.4136C12.7099 49.8012 12.7269 39.1888 12.692 28.5764C12.6769 23.8145 11.8747 19.1676 10.4178 14.6396C10.3913 14.5581 10.3715 14.4748 10.3309 14.3291L9.84713 13.1417C9.63927 12.6195 9.44841 12.1393 9.24338 11.6257C12.3651 10.3923 15.4442 9.17623 18.5612 7.94479C18.7719 8.36549 18.9741 8.7469 19.1583 9.13694C20.2845 11.526 21.7868 13.6727 23.3212 15.7982C23.6179 16.2093 23.8956 16.6329 24.1914 17.045C24.5844 17.5912 25.0105 17.5922 25.3932 17.0383C25.7059 16.5859 25.9941 16.1154 26.2974 15.6573C26.4306 15.457 26.5761 15.2644 26.7773 14.9817V67.1238L26.7783 67.1219ZM27.5115 10.8993C26.578 12.2888 25.6266 13.665 24.6553 15.0785C23.0642 12.9012 21.6196 10.7153 20.4045 8.3607C19.8962 7.37555 19.8159 6.60985 20.5094 5.73778C20.8656 5.28929 21.1065 4.74688 21.4042 4.24952C21.4854 4.11439 21.5808 3.9879 21.7056 3.80582C21.7896 4.03581 21.8586 4.22173 21.9257 4.40764C22.794 6.82452 24.4701 8.5514 26.5213 9.95822C26.8066 10.1537 27.109 10.3253 27.3782 10.5399C27.4671 10.6108 27.5549 10.837 27.5115 10.9012V10.8993ZM29.9 67.3298C29.4181 67.3298 28.9599 67.349 28.5054 67.3135C28.4138 67.3068 28.2692 67.096 28.2654 66.9762C28.2446 66.1329 28.2541 65.2886 28.2541 64.4443C28.2541 62.8746 28.2541 61.3039 28.2541 59.6738C28.9485 60.1635 29.385 60.0993 29.9 59.4295V67.3298ZM29.6109 26.7796C29.3 26.4298 28.9013 26.4327 28.2985 26.8007V19.9678C28.9901 20.4403 29.4172 20.3761 29.8924 19.6775V36.8783C29.2424 36.2267 28.9599 36.2008 28.2976 36.7413V27.9056C28.5451 27.9717 28.8059 28.1145 29.0421 28.0819C29.2679 28.0513 29.5202 27.8797 29.6685 27.6948C29.899 27.4073 29.8631 27.0642 29.6109 26.7796ZM29.163 37.9564C29.42 37.9152 29.6439 37.6651 29.8971 37.4964V50.4653C29.4483 49.6527 29.0723 49.5933 28.2805 50.1299V37.7734C28.5876 37.8453 28.8909 37.9995 29.163 37.9555V37.9564ZM29.8962 50.8381V58.911C29.3548 58.2881 29.0024 58.2488 28.2928 58.7366V51.1735C28.5706 51.2339 28.8881 51.392 29.1668 51.3384C29.4304 51.2876 29.6524 51.0145 29.8962 50.8381ZM29.916 19.1724C29.2291 18.5438 28.9637 18.5313 28.2531 19.0919C28.2531 18.5697 28.2513 18.0982 28.2531 17.6276C28.2569 16.9166 28.273 16.2055 28.2654 15.4944C28.2626 15.228 28.324 15.0833 28.6216 15.1063C29.0317 15.137 29.5617 14.9961 29.8168 15.2069C30.0219 15.3765 29.9094 15.9602 29.9132 16.3598C29.9217 17.2711 29.916 18.1835 29.916 19.1724ZM27.8762 13.4772C28.2805 12.8533 28.6556 12.2754 29.0695 11.6372C29.4786 12.2697 29.8499 12.8447 30.259 13.4772H27.8762ZM36.3975 3.80677C36.5279 3.9649 36.629 4.05881 36.697 4.17381C37.2015 5.02096 37.7108 5.86428 38.187 6.72677C38.2748 6.88585 38.2937 7.15993 38.221 7.32572C37.0154 10.0962 35.3865 12.6051 33.5347 15.067C32.5237 13.5989 31.5317 12.1566 30.5179 10.6837C33.2361 9.04015 35.4791 7.05355 36.3975 3.80677ZM45.943 23.7973C45.7096 25.8011 45.6369 27.8328 45.6293 29.8529C45.5896 40.1165 45.5953 50.3801 45.5849 60.6436C45.5849 61.103 45.3393 61.4387 44.848 61.6508L43.4506 62.5833C40.4593 64.2622 37.3971 65.7774 34.0902 66.7136C33.2645 66.9475 32.4217 67.118 31.5355 67.3298V15.3248C31.5619 15.3095 31.5893 15.2951 31.6158 15.2798C31.9927 15.8567 32.4 16.4163 32.7401 17.0143C33.2664 17.942 33.7463 17.7235 34.2159 17.0785C36.2284 14.3138 38.2144 11.5356 39.5919 8.36837C39.6146 8.31662 39.6486 8.26966 39.711 8.16233C42.8421 9.39185 45.9742 10.6223 49.1459 11.8681C48.9126 12.3904 48.7085 12.8495 48.4912 13.3372L47.9186 14.8744C46.9105 17.7685 46.2954 20.7623 45.9411 23.7973H45.943ZM47.2705 30.9348C47.2724 30.8543 47.381 30.7355 47.4651 30.7039C50.0993 29.7264 52.7353 28.7575 55.3732 27.7896C55.4243 27.7705 55.4828 27.7733 55.5764 27.7609C55.6718 28.3186 55.7483 28.8342 55.8523 29.345C55.909 29.6258 55.7446 29.6986 55.5452 29.7743C53.5649 30.5333 51.5874 31.3009 49.6032 32.0522C48.8578 32.3349 48.0981 32.5803 47.262 32.8716C47.262 32.1749 47.2544 31.5539 47.2705 30.9348ZM56.1197 33.4514C54.4086 34.1586 52.6985 34.8659 50.9713 35.5319C49.8612 35.9603 48.7255 36.3196 47.6012 36.7087C47.5237 36.7355 47.4434 36.7499 47.2733 36.794C47.2733 36.1241 47.2657 35.5051 47.2818 34.886C47.2837 34.8045 47.3924 34.6847 47.4764 34.6531C50.3241 33.5836 53.1756 32.5228 56.0271 31.4629C56.0639 31.4494 56.1102 31.461 56.1839 31.461C56.2689 32.0014 56.3738 32.541 56.4211 33.0853C56.4314 33.2013 56.2529 33.3977 56.1197 33.4523V33.4514Z" fill="black"/>
</svg>
